<?xml version="1.0" encoding="utf-8"?>
<!-- Generator: Adobe Illustrator 18.0.0, SVG Export Plug-In . SVG Version: 6.00 Build 0)  -->
<!DOCTYPE svg PUBLIC "-//W3C//DTD SVG 1.1//EN" "http://www.w3.org/Graphics/SVG/1.1/DTD/svg11.dtd">
<svg version="1.1" id="图层_1" xmlns="http://www.w3.org/2000/svg" xmlns:xlink="http://www.w3.org/1999/xlink" x="0px" y="0px"
	 viewBox="0 0 15 11" enable-background="new 0 0 15 11" xml:space="preserve">
<path fill-rule="evenodd" clip-rule="evenodd" d="M14.8,0.5c-0.3,0.4-0.9,1-2,2.1C11.1,4.3,10.2,5.1,9,6.3c-0.8,0.8-2.2,0.8-3,0
	C4.4,4.7,3.1,3.4,1.6,1.9C0.8,1.1,0.4,0.7,0.2,0.5C0.4,0.2,0.7,0,1,0h13C14.3,0,14.6,0.2,14.8,0.5z M12.9,3.8
	c-0.4,0.4-0.8,0.7-1.1,1.1c0,0,0,0,0,0L14,9l-3.2-3.3C10,6.4,9.4,6.9,9,7.3C8.1,8,6.9,8,6,7.3C5.3,6.6,4.7,6.1,4.2,5.6L1,8.9
	l2.2-4.2c-0.5-0.5-1-1-1.6-1.6C0,1.6,0,1.5,0,1.2V10c0,0.6,0.4,1,1,1h13c0.6,0,1-0.4,1-1V1.2C15,1.6,14.4,2.2,12.9,3.8z"/>
</svg>
