<?xml version="1.0" encoding="utf-8"?>
<!-- Generator: Adobe Illustrator 18.0.0, SVG Export Plug-In . SVG Version: 6.00 Build 0)  -->
<!DOCTYPE svg PUBLIC "-//W3C//DTD SVG 1.1//EN" "http://www.w3.org/Graphics/SVG/1.1/DTD/svg11.dtd">
<svg version="1.1" id="图层_1" xmlns="http://www.w3.org/2000/svg" xmlns:xlink="http://www.w3.org/1999/xlink" x="0px" y="0px"
	 viewBox="0 0 12 18" enable-background="new 0 0 12 18" xml:space="preserve">
<g>
	<path d="M10,0H2C0.9,0,0,0.9,0,2v14c0,1.1,0.9,2,2,2h8c1.1,0,2-0.9,2-2V2C12,0.9,11.1,0,10,0z M6,17c-0.6,0-1-0.4-1-1
		c0-0.6,0.4-1,1-1s1,0.4,1,1C7,16.6,6.6,17,6,17z M11,13c0,0.6-0.4,1-1,1H2c-0.6,0-1-0.4-1-1V3c0-0.6,0.4-1,1-1h8c0.6,0,1,0.4,1,1
		V13z"/>
</g>
</svg>
