<?xml version="1.0" encoding="utf-8"?>
<!-- Generator: Adobe Illustrator 18.0.0, SVG Export Plug-In . SVG Version: 6.00 Build 0)  -->
<!DOCTYPE svg PUBLIC "-//W3C//DTD SVG 1.1//EN" "http://www.w3.org/Graphics/SVG/1.1/DTD/svg11.dtd">
<svg version="1.1" id="图层_1" xmlns="http://www.w3.org/2000/svg" xmlns:xlink="http://www.w3.org/1999/xlink" x="0px" y="0px"
	 viewBox="0 0 40 60" enable-background="new 0 0 40 60" xml:space="preserve">
<g>
	<path d="M20,2c9.9,0,18,8.1,18,18v20c0,9.9-8.1,18-18,18S2,49.9,2,40V20C2,10.1,10.1,2,20,2 M20,0C9,0,0,9,0,20v20c0,11,9,20,20,20
		s20-9,20-20V20C40,9,31,0,20,0L20,0z"/>
</g>
<path fill-rule="evenodd" clip-rule="evenodd" d="M20,16.8c1.7,0,3,1.3,3,3c0,1.7-1.3,3-3,3s-3-1.3-3-3C17,18.1,18.3,16.8,20,16.8z"
	/>
</svg>
