<?xml version="1.0" encoding="utf-8"?>
<!-- Generator: Adobe Illustrator 18.0.0, SVG Export Plug-In . SVG Version: 6.00 Build 0)  -->
<!DOCTYPE svg PUBLIC "-//W3C//DTD SVG 1.1//EN" "http://www.w3.org/Graphics/SVG/1.1/DTD/svg11.dtd">
<svg version="1.1" id="图层_1" xmlns="http://www.w3.org/2000/svg" xmlns:xlink="http://www.w3.org/1999/xlink" x="0px" y="0px"
	 viewBox="0 0 15 14" enable-background="new 0 0 15 14" xml:space="preserve">
<path fill-rule="evenodd" clip-rule="evenodd" d="M15,6.6C15,2.9,11.6,0,7.5,0C3.4,0,0,2.9,0,6.6c0,3.6,3.4,6.6,7.5,6.6
	c1.1,0,2.1-0.2,3.1-0.6c0.1,0,0.1,0,0.1,0l2.4,1.5l-0.5-2.6c0,0,0,0,0.1-0.1C14.1,10.1,15,8.4,15,6.6z M4.7,5.1
	C4.1,5.1,3.6,4.6,3.6,4c0-0.6,0.5-1.1,1.1-1.1c0.6,0,1.1,0.5,1.1,1.1C5.8,4.6,5.3,5.1,4.7,5.1z M10.3,5.1C9.6,5.1,9.1,4.6,9.1,4
	c0-0.6,0.5-1.1,1.1-1.1c0.6,0,1.1,0.5,1.1,1.1C11.4,4.6,10.9,5.1,10.3,5.1z"/>
</svg>
