<?xml version="1.0" encoding="utf-8"?>
<!-- Generated by IcoMoon.io -->
<!DOCTYPE svg PUBLIC "-//W3C//DTD SVG 1.1//EN" "http://www.w3.org/Graphics/SVG/1.1/DTD/svg11.dtd">
<svg version="1.1" xmlns="http://www.w3.org/2000/svg" xmlns:xlink="http://www.w3.org/1999/xlink" width="752" height="32" viewBox="0 0 752 32">
<svg id="icon-logo" width="75" height="32" viewBox="0 0 75 32" x="0" y="0">
<path d="M32 0c0 3.52 0 6.994 0 10.514-3.52-3.52-6.994-6.994-10.514-10.514 3.52 0 6.994 0 10.514 0zM42.514 32c0-10.651 0-21.349 0-32 10.651 10.651 21.349 21.349 32 32-10.651 0-21.349 0-32 0zM16 32c8.823 0 16-7.177 16-16h-32c0 8.823 7.177 16 16 16z"></path>
</svg>
<svg id="icon-icon-mail" width="44" height="32" viewBox="0 0 44 32" x="96" y="0">
<path d="M43.055 1.455c-0.873 1.164-2.618 2.909-5.818 6.109-4.945 4.945-7.564 7.273-11.055 10.764-2.327 2.327-6.4 2.327-8.727 0-4.655-4.655-8.436-8.436-12.8-12.8-2.327-2.327-3.491-3.491-4.073-4.073 0.582-0.873 1.455-1.455 2.327-1.455h37.818c0.873 0 1.745 0.582 2.327 1.455zM37.527 11.055c-1.164 1.164-2.327 2.036-3.2 3.2 0 0 0 0 0 0l6.4 11.927-9.309-9.6c-2.327 2.036-4.073 3.491-5.236 4.655-2.618 2.036-6.109 2.036-8.727 0-2.036-2.036-3.782-3.491-5.236-4.945l-9.309 9.6 6.4-12.218c-1.455-1.455-2.909-2.909-4.655-4.655-4.655-4.364-4.655-4.655-4.655-5.527v25.6c0 1.745 1.164 2.909 2.909 2.909h37.818c1.745 0 2.909-1.164 2.909-2.909v-25.6c0 1.164-1.745 2.909-6.109 7.564z"></path>
</svg>
<svg id="icon-icon-mobile" width="21" height="32" viewBox="0 0 21 32" x="192" y="0">
<path d="M17.778 0h-14.222c-1.956 0-3.556 1.6-3.556 3.556v24.889c0 1.956 1.6 3.556 3.556 3.556h14.222c1.956 0 3.556-1.6 3.556-3.556v-24.889c0-1.956-1.6-3.556-3.556-3.556zM10.667 30.222c-1.067 0-1.778-0.711-1.778-1.778s0.711-1.778 1.778-1.778 1.778 0.711 1.778 1.778c0 1.067-0.711 1.778-1.778 1.778zM19.556 23.111c0 1.067-0.711 1.778-1.778 1.778h-14.222c-1.067 0-1.778-0.711-1.778-1.778v-17.778c0-1.067 0.711-1.778 1.778-1.778h14.222c1.067 0 1.778 0.711 1.778 1.778v17.778z"></path>
</svg>
<svg id="icon-mouse" width="21" height="32" viewBox="0 0 21 32" x="240" y="0">
<path d="M10.667 1.067c5.28 0 9.6 4.32 9.6 9.6v10.667c0 5.28-4.32 9.6-9.6 9.6s-9.6-4.32-9.6-9.6v-10.667c0-5.28 4.32-9.6 9.6-9.6zM10.667 0c-5.867 0-10.667 4.8-10.667 10.667v10.667c0 5.867 4.8 10.667 10.667 10.667s10.667-4.8 10.667-10.667v-10.667c0-5.867-4.8-10.667-10.667-10.667v0z"></path>
<path d="M10.667 8.96c0.907 0 1.6 0.693 1.6 1.6s-0.693 1.6-1.6 1.6-1.6-0.693-1.6-1.6c0-0.907 0.693-1.6 1.6-1.6z"></path>
</svg>
<svg id="icon-tri" width="32" height="32" viewBox="0 0 32 32" x="288" y="0">
<path d="M32 0c0 10.713 0 21.287 0 32-10.713-10.713-21.287-21.287-32-32 10.713 0 21.287 0 32 0z"></path>
</svg>
<svg id="icon-icon-wechat" width="34" height="32" viewBox="0 0 34 32" x="336" y="0">
<path d="M34.286 15.086c0-8.457-7.771-15.086-17.143-15.086s-17.143 6.629-17.143 15.086c0 8.229 7.771 15.086 17.143 15.086 2.514 0 4.8-0.457 7.086-1.371 0.229 0 0.229 0 0.229 0l5.486 3.429-1.143-5.943c0 0 0 0 0.229-0.229 3.2-2.971 5.257-6.857 5.257-10.971zM10.743 11.657c-1.371 0-2.514-1.143-2.514-2.514s1.143-2.514 2.514-2.514c1.371 0 2.514 1.143 2.514 2.514s-1.143 2.514-2.514 2.514zM23.543 11.657c-1.6 0-2.743-1.143-2.743-2.514s1.143-2.514 2.514-2.514c1.371 0 2.514 1.143 2.514 2.514 0.229 1.371-0.914 2.514-2.286 2.514z"></path>
</svg>
</svg>
